<svg width="300" height="300" viewBox="0 0 300 300" fill="none" xmlns="http://www.w3.org/2000/svg">
<mask id="mask0_996_1895" style="mask-type:alpha" maskUnits="userSpaceOnUse" x="0" y="0" width="300" height="300">
<circle cx="150" cy="150" r="150" fill="white"/>
</mask>
<g mask="url(#mask0_996_1895)">
<path d="M221.372 155.632C210.188 227.791 188.997 232.064 149.062 232.064C109.126 232.064 90.8412 228.74 78.9801 155.632C67.119 82.5235 109.126 64.009 149.062 64.009C188.997 64.009 232.555 83.473 221.372 155.632Z" fill="#FFAAC5"/>
<path d="M143.976 151.733C109.22 174.451 89.376 177.061 53.0201 154.079" stroke="url(#paint0_linear_996_1895)" stroke-width="40" stroke-linecap="round"/>
<path d="M42.5318 193.107C77.3584 190.321 88.5331 180.254 105.148 169.145" stroke="url(#paint1_linear_996_1895)" stroke-width="40" stroke-linecap="round"/>
<path d="M67.8856 229.952C96.4528 212.065 100.437 198.386 108.542 181.388" stroke="url(#paint2_linear_996_1895)" stroke-width="40" stroke-linecap="round"/>
<path d="M122.523 241.877C133.371 212.391 127.347 199.312 122.39 181.388" stroke="url(#paint3_linear_996_1895)" stroke-width="40" stroke-linecap="round"/>
<path d="M156.024 151.733C190.78 174.451 210.624 177.061 246.98 154.079" stroke="url(#paint4_linear_996_1895)" stroke-width="40" stroke-linecap="round"/>
<path d="M257.469 193.107C222.642 190.321 211.467 180.254 194.852 169.145" stroke="url(#paint5_linear_996_1895)" stroke-width="40" stroke-linecap="round"/>
<path d="M232.115 229.952C203.547 212.065 199.563 198.386 191.458 181.388" stroke="url(#paint6_linear_996_1895)" stroke-width="40" stroke-linecap="round"/>
<path d="M177.477 241.877C166.629 212.391 172.653 199.312 177.61 181.388" stroke="url(#paint7_linear_996_1895)" stroke-width="40" stroke-linecap="round"/>
<path d="M180.987 50.7096C173.771 69.8331 181.587 79.3415 191.666 81.5799C201.745 83.8183 205.359 80.3031 217.486 58.8157C229.612 37.3283 204.972 34.4466 204.972 34.4466C204.972 34.4466 188.204 31.5862 180.987 50.7096Z" fill="url(#paint8_linear_996_1895)"/>
<path d="M124.91 50.7096C132.126 69.8331 124.31 79.3415 114.231 81.5799C104.152 83.8183 100.538 80.3031 88.4116 58.8157C76.2855 37.3283 100.926 34.4466 100.926 34.4466C100.926 34.4466 117.693 31.5862 124.91 50.7096Z" fill="url(#paint9_linear_996_1895)"/>
<ellipse cx="106.5" cy="140" rx="6.5" ry="5" fill="#AA7BEB"/>
<ellipse cx="190.5" cy="140" rx="6.5" ry="5" fill="#AA7BEB"/>
<ellipse cx="150" cy="147.5" rx="72" ry="41.5" fill="#FFAAC5"/>
<path d="M144.218 137.621C144.279 138.156 143.53 145.832 151.541 144.915C159.552 143.999 156.563 136.751 156.502 136.216" stroke="black" stroke-width="6" stroke-linecap="round"/>
<ellipse cx="122" cy="136" rx="8" ry="5" fill="#E95D8B"/>
<ellipse cx="179" cy="136" rx="8" ry="5" fill="#E95D8B"/>
<mask id="mask1_996_1895" style="mask-type:alpha" maskUnits="userSpaceOnUse" x="111" y="99" width="33" height="39">
<path d="M127.5 99C136.613 99 144 107.73 144 118.5C144 129.27 136.613 138 127.5 138C118.387 138 111 129.27 111 118.5C111 107.73 118.387 99 127.5 99Z" fill="white"/>
</mask>
<g mask="url(#mask1_996_1895)">
<path d="M144 118.5C144 129.27 145.1 127.167 127.5 127.167C109.9 127.167 111 129.27 111 118.5C111 107.73 118.387 99 127.5 99C136.613 99 144 107.73 144 118.5Z" fill="white"/>
<path d="M144 118.5C144 129.27 145.1 127.167 127.5 127.167C109.9 127.167 111 129.27 111 118.5C111 107.73 118.387 99 127.5 99C136.613 99 144 107.73 144 118.5Z" fill="white"/>
<path d="M144 108.208C144 114.491 138.829 119.583 132.45 119.583C126.071 119.583 120.9 114.491 120.9 108.208C120.9 101.926 126.071 96.8334 132.45 96.8334C138.829 96.8334 144 101.926 144 108.208Z" fill="black"/>
<ellipse cx="122.55" cy="112" rx="3.85" ry="4.33333" fill="white"/>
<ellipse cx="122.55" cy="112" rx="3.85" ry="4.33333" fill="white"/>
</g>
<mask id="mask2_996_1895" style="mask-type:alpha" maskUnits="userSpaceOnUse" x="154" y="99" width="33" height="39">
<path d="M170.5 99C179.613 99 187 107.73 187 118.5C187 129.27 179.613 138 170.5 138C161.387 138 154 129.27 154 118.5C154 107.73 161.387 99 170.5 99Z" fill="white"/>
</mask>
<g mask="url(#mask2_996_1895)">
<path d="M187 118.5C187 129.27 188.1 127.167 170.5 127.167C152.9 127.167 154 129.27 154 118.5C154 107.73 161.387 99 170.5 99C179.613 99 187 107.73 187 118.5Z" fill="white"/>
<path d="M187 118.5C187 129.27 188.1 127.167 170.5 127.167C152.9 127.167 154 129.27 154 118.5C154 107.73 161.387 99 170.5 99C179.613 99 187 107.73 187 118.5Z" fill="white"/>
<path d="M187 108.208C187 114.491 181.829 119.583 175.45 119.583C169.071 119.583 163.9 114.491 163.9 108.208C163.9 101.926 169.071 96.8334 175.45 96.8334C181.829 96.8334 187 101.926 187 108.208Z" fill="black"/>
<ellipse cx="165.55" cy="112" rx="3.85" ry="4.33333" fill="white"/>
<ellipse cx="165.55" cy="112" rx="3.85" ry="4.33333" fill="white"/>
</g>
</g>
<defs>
<linearGradient id="paint0_linear_996_1895" x1="131.913" y1="134.664" x2="70.1478" y2="178.315" gradientUnits="userSpaceOnUse">
<stop offset="0.0336538" stop-color="#FFAAC5"/>
<stop offset="0.399038" stop-color="#FF9FBE"/>
<stop offset="1" stop-color="#FF73A0"/>
</linearGradient>
<linearGradient id="paint1_linear_996_1895" x1="42.3906" y1="192.749" x2="104.752" y2="168.14" gradientUnits="userSpaceOnUse">
<stop stop-color="#FF73A0"/>
<stop offset="0.524038" stop-color="#FF9FBE"/>
<stop offset="0.990385" stop-color="#FFAAC5"/>
</linearGradient>
<linearGradient id="paint2_linear_996_1895" x1="67.5613" y1="229.705" x2="105.887" y2="179.367" gradientUnits="userSpaceOnUse">
<stop stop-color="#FF73A0"/>
<stop offset="0.524038" stop-color="#FF9FBE"/>
<stop offset="0.990385" stop-color="#FFAAC5"/>
</linearGradient>
<linearGradient id="paint3_linear_996_1895" x1="122.096" y1="241.851" x2="125.772" y2="181.595" gradientUnits="userSpaceOnUse">
<stop stop-color="#FF73A0"/>
<stop offset="0.524038" stop-color="#FF9FBE"/>
<stop offset="0.990385" stop-color="#FFAAC5"/>
</linearGradient>
<linearGradient id="paint4_linear_996_1895" x1="168.087" y1="134.664" x2="229.852" y2="178.315" gradientUnits="userSpaceOnUse">
<stop offset="0.0336538" stop-color="#FFAAC5"/>
<stop offset="0.399038" stop-color="#FF9FBE"/>
<stop offset="1" stop-color="#FF73A0"/>
</linearGradient>
<linearGradient id="paint5_linear_996_1895" x1="257.61" y1="192.749" x2="195.249" y2="168.14" gradientUnits="userSpaceOnUse">
<stop stop-color="#FF73A0"/>
<stop offset="0.524038" stop-color="#FF9FBE"/>
<stop offset="0.990385" stop-color="#FFAAC5"/>
</linearGradient>
<linearGradient id="paint6_linear_996_1895" x1="232.439" y1="229.705" x2="194.113" y2="179.367" gradientUnits="userSpaceOnUse">
<stop stop-color="#FF73A0"/>
<stop offset="0.524038" stop-color="#FF9FBE"/>
<stop offset="0.990385" stop-color="#FFAAC5"/>
</linearGradient>
<linearGradient id="paint7_linear_996_1895" x1="177.904" y1="241.851" x2="174.228" y2="181.595" gradientUnits="userSpaceOnUse">
<stop stop-color="#FF73A0"/>
<stop offset="0.524038" stop-color="#FF9FBE"/>
<stop offset="0.990385" stop-color="#FFAAC5"/>
</linearGradient>
<linearGradient id="paint8_linear_996_1895" x1="205.335" y1="34.4466" x2="194.716" y2="82.2573" gradientUnits="userSpaceOnUse">
<stop stop-color="#FF73A0"/>
<stop offset="0.524038" stop-color="#FF9FBE"/>
<stop offset="0.990385" stop-color="#FFAAC5"/>
</linearGradient>
<linearGradient id="paint9_linear_996_1895" x1="100.562" y1="34.4466" x2="111.181" y2="82.2573" gradientUnits="userSpaceOnUse">
<stop stop-color="#FF73A0"/>
<stop offset="0.524038" stop-color="#FF9FBE"/>
<stop offset="0.990385" stop-color="#FFAAC5"/>
</linearGradient>
</defs>
</svg>
